# xmcd CD database file generated by Grip 3.0.4
# 
# Track frame offsets:
#       150
#       13037
#       26090
#       39380
#       52642
#       65407
#       77722
#       89432
#       102240
#       115380
#       129875
#       142422
#       154390
#       166257
#       179140
# 
# Disc length: 2543 seconds
# 
# Revision: 2
# Processed by: cddbd v1.5.1PL0 Copyright (c) Steve Scherf et al.
# Submitted via: Grip 3.0.4
# 
DISCID=ca09ed0f
DTITLE=Roy Acuff - Greatest Hits (Columbia)
DYEAR=1988
DGENRE=Country
TTITLE0=Lonesome Old River Blues
TTITLE1=Were You There When They Crucified My Lord
TTITLE2=Tennessee Waltz
TTITLE3=Waiting For My Call To Glory
TTITLE4=Mule Skinner Blues (Blue Yodel #8)
TTITLE5=I Saw The Light
TTITLE6=Fire Ball Mail
TTITLE7=Night Train To Memphis
TTITLE8=Great Speckle Bird
TTITLE9=If I Could Hear My Mother Pray Again
TTITLE10=Wreck On The Highway
TTITLE11=Freight Train Blues
TTITLE12=The Devil's Train
TTITLE13=It Won't Be Long (Till I'll Be Leaving)
TTITLE14=Wabash Cannon Ball
EXTD=
EXTT0=
EXTT1=
EXTT2=
EXTT3=
EXTT4=
EXTT5=
EXTT6=
EXTT7=
EXTT8=
EXTT9=
EXTT10=
EXTT11=
EXTT12=
EXTT13=
EXTT14=
PLAYORDER=
